<?xml version="1.0" standalone="no"?><!-- Generator: Gravit.io --><svg xmlns="http://www.w3.org/2000/svg" xmlns:xlink="http://www.w3.org/1999/xlink" style="isolation:isolate" viewBox="0 0 150 90" width="150" height="90"><defs><clipPath id="_clipPath_kyIzjz90U3jEaq98nIDyMWmWwHfU0dSs"><rect width="150" height="90"/></clipPath></defs><g clip-path="url(#_clipPath_kyIzjz90U3jEaq98nIDyMWmWwHfU0dSs)"><g><g><path d=" M 100.686 57.138 L 100.686 57.138 C 94.016 59.562 82.602 62.836 76.094 62.502 L 76.094 62.502 C 73.369 62.936 70.804 61.076 70.369 58.351 L 70.369 58.351 L 70.369 58.351 C 69.935 55.626 71.795 53.061 74.52 52.627 L 74.52 52.627 C 81.038 53.078 92.475 49.822 99.112 47.263 L 99.112 47.263 C 101.838 46.829 104.403 48.688 104.837 51.414 L 104.837 51.414 L 104.837 51.414 C 105.271 54.139 103.412 56.704 100.686 57.138 Z " fill="rgb(58,114,183)"/><path d=" M 61.533 9.8 C 61.278 18.394 57.869 26.908 51.315 33.461 L 44.244 26.39 L 44.244 26.39 C 48.846 21.788 51.278 15.832 51.543 9.8 L 61.533 9.8 L 61.533 9.8 Z " fill="rgb(58,114,183)"/><path d=" M 94.909 51.966 C 94.501 57.744 92.084 63.403 87.671 67.817 C 77.914 77.573 62.072 77.573 52.315 67.817 C 42.559 58.06 42.559 42.218 52.315 32.461 L 45.244 25.39 C 31.585 39.049 31.585 61.228 45.244 74.888 C 58.904 88.547 81.083 88.547 94.742 74.888 C 101.107 68.522 104.506 60.307 104.946 51.966 L 94.909 51.966 L 94.909 51.966 Z " fill="rgb(58,114,183)"/><path d=" M 51.55 10 L 51.55 10 C 51.55 7.24 53.79 5 56.55 5 L 56.55 5 L 56.55 5 C 59.31 5 61.55 7.24 61.55 10 L 61.55 10 L 51.55 10 Z " fill="rgb(58,114,183)"/><path d=" M 94.9 52.2 L 94.9 52.2 C 94.9 49.44 97.14 47.2 99.9 47.2 L 99.9 47.2 L 99.9 47.2 C 102.66 47.2 104.9 49.44 104.9 52.2 L 104.9 52.2 L 94.9 52.2 Z " fill="rgb(58,114,183)"/></g><g opacity="0.64"><circle vector-effect="non-scaling-stroke" cx="52.499999999999986" cy="44.99999999999999" r="12.50000000000001" fill="rgb(181,181,181)"/></g><g><path d=" M 134.736 76.262 L 134.736 76.262 L 95.655 12.606 L 95.655 12.606 C 94.29 10.207 95.128 7.152 97.527 5.787 L 97.527 5.787 L 97.527 5.787 C 99.925 4.422 102.98 5.26 104.345 7.659 L 104.345 7.659 L 143.426 71.315 L 143.426 71.315 C 144.792 73.713 143.953 76.769 141.555 78.134 L 141.555 78.134 L 141.555 78.134 C 139.156 79.499 136.101 78.66 134.736 76.262 Z " fill="rgb(58,114,183)"/><path d=" M 135 75.132 L 135 75.132 L 135 10.132 L 135 10.132 C 135 7.372 137.24 5.132 140 5.132 L 140 5.132 L 140 5.132 C 142.76 5.132 145 7.372 145 10.132 L 145 10.132 L 145 75.132 L 145 75.132 C 145 77.892 142.76 80.132 140 80.132 L 140 80.132 L 140 80.132 C 137.24 80.132 135 77.892 135 75.132 Z " fill="rgb(58,114,183)"/><path d=" M 95 37.132 L 95 37.132 L 95 10.132 L 95 10.132 C 95 7.372 97.24 5.132 100 5.132 L 100 5.132 L 100 5.132 C 102.76 5.132 105 7.372 105 10.132 L 105 10.132 L 105 37.132 L 105 37.132 C 105 39.892 102.76 42.132 100 42.132 L 100 42.132 L 100 42.132 C 97.24 42.132 95 39.892 95 37.132 Z " fill="rgb(58,114,183)"/></g><g><path d=" M 10 5 L 10 5 L 56 5 L 56 5 C 58.76 5 61 7.24 61 10 L 61 10 L 61 10 C 61 12.76 58.76 15 56 15 L 56 15 L 10 15 L 10 15 C 7.24 15 5 12.76 5 10 L 5 10 L 5 10 C 5 7.24 7.24 5 10 5 Z " fill="rgb(58,114,183)"/><path d=" M 15 75 L 15 75 L 15 10 L 15 10 C 15 7.24 12.76 5 10 5 L 10 5 L 10 5 C 7.24 5 5 7.24 5 10 L 5 10 L 5 75 L 5 75 C 5 77.76 7.24 80 10 80 L 10 80 L 10 80 C 12.76 80 15 77.76 15 75 Z " fill="rgb(58,114,183)"/><path d=" M 10 50 L 25 50 L 25 50 C 27.76 50 30 47.76 30 45 L 30 45 L 30 45 C 30 42.24 27.76 40 25 40 L 25 40 L 10 40 L 10 50 Z " fill="rgb(58,114,183)"/></g></g></g></svg>